<svg width="20" height="20" viewBox="0 0 24 24" fill="none" xmlns="http://www.w3.org/2000/svg">
<path d="M15.5799 11.9999C15.5799 13.9799 13.9799 15.5799 11.9999 15.5799C10.0199 15.5799 8.41992 13.9799 8.41992 11.9999C8.41992 10.0199 10.0199 8.41992 11.9999 8.41992C13.9799 8.41992 15.5799 10.0199 15.5799 11.9999Z" stroke="#838383" stroke-width="1.5" stroke-linecap="round" stroke-linejoin="round"/>
<path d="M11.9998 20.2707C15.5298 20.2707 18.8198 18.1907 21.1098 14.5907C22.0098 13.1807 22.0098 10.8107 21.1098 9.4007C18.8198 5.8007 15.5298 3.7207 11.9998 3.7207C8.46984 3.7207 5.17984 5.8007 2.88984 9.4007C1.98984 10.8107 1.98984 13.1807 2.88984 14.5907C5.17984 18.1907 8.46984 20.2707 11.9998 20.2707Z" stroke="#838383" stroke-width="1.5" stroke-linecap="round" stroke-linejoin="round"/>
</svg>
